<svg xmlns="http://www.w3.org/2000/svg" xmlns:xlink="http://www.w3.org/1999/xlink" version="1.1" x="0px" y="0px" viewBox="-714.2 227.8 149.5 196.5" style="enable-background:new -714.2 227.8 149.5 157.2;" xml:space="preserve"><style type="text/css">
	.st0{fill:none;stroke:#343434;stroke-miterlimit:10;}
</style><circle class="st0" cx="-604.2" cy="294.1" r="20.2"/><circle class="st0" cx="-661.5" cy="340.3" r="29.1"/><g><path class="st0" d="M-604.5,305.3c0.2,0,0.4,0,0.6,0c3.8-0.1,7.4-0.5,8.1-1.1c0.2-1.4,0.3-2-5.8-4.9c-0.9-0.5-0.4-2.4-0.4-2.4   c1.8-1.4,3.1-4.6,3.1-7.2c0-4.5-2-6.6-5-6.8h-0.6c-3,0.2-5,2.3-5,6.8c0,2.6,1.3,5.8,3.1,7.2c0,0,0.5,1.9-0.4,2.4   c-6.1,2.9-5.9,3.6-5.8,4.9C-611.9,304.8-608.3,305.3-604.5,305.3z"/></g><circle class="st0" cx="-650" cy="264.4" r="14.3"/><g><path class="st0" d="M-650.2,272.3c0.1,0,0.3,0,0.4,0c2.7,0,5.2-0.3,5.7-0.8c0.1-1,0.2-1.4-4.1-3.5c-0.6-0.3-0.3-1.7-0.3-1.7   c1.3-1,2.2-3.3,2.2-5.1c0-3.2-1.4-4.7-3.5-4.8h-0.4c-2.1,0.2-3.5,1.6-3.5,4.8c0,1.8,0.9,4.1,2.2,5.1c0,0,0.3,1.3-0.3,1.7   c-4.3,2-4.2,2.5-4.1,3.5C-655.5,271.9-652.9,272.3-650.2,272.3z"/></g><g><path class="st0" d="M-661.9,356.5c0.3,0,0.6,0,0.9,0c5.5-0.1,10.7-0.7,11.6-1.6c0.2-2,0.5-3-8.3-7.1c-1.3-0.7-0.6-3.4-0.6-3.4   c2.7-2,4.5-6.7,4.5-10.4c0-6.4-2.9-9.5-7.2-9.8h-0.9c-4.3,0.3-7.2,3.4-7.2,9.8c0,3.7,1.8,8.4,4.5,10.4c0,0,0.7,2.7-0.6,3.4   c-8.8,4.2-8.6,5.1-8.4,7.1C-672.6,355.8-667.4,356.4-661.9,356.5z"/></g><line class="st0" x1="-639.4" y1="273.9" x2="-621.6" y2="284"/><line class="st0" x1="-619.8" y1="307" x2="-638.8" y2="322.6"/><text x="-714.2" y="400" fill="#000000" font-size="5px" font-weight="bold" font-family="'Helvetica Neue', Helvetica, Arial-Unicode, Arial, Sans-serif">Created by Tom Street</text><text x="-714.2" y="405" fill="#000000" font-size="5px" font-weight="bold" font-family="'Helvetica Neue', Helvetica, Arial-Unicode, Arial, Sans-serif">from the Noun Project</text></svg>