<svg xmlns="http://www.w3.org/2000/svg" data-name="Слой 1" viewBox="0 0 100 125" x="0px" y="0px"><title>Монтажная область 1</title><circle cx="51.5" cy="48.5" r="14.5"/><circle cx="30" cy="37" r="5"/><circle cx="42" cy="76" r="5"/><circle cx="65" cy="67" r="3"/><circle cx="49.5" cy="25.5" r="5.5"/><circle cx="74.5" cy="50.5" r="3.5"/><circle cx="26.5" cy="56.5" r="3.5"/><circle cx="70.5" cy="32.5" r="2.5"/><circle cx="50" cy="67" r="2"/><circle cx="31" cy="73" r="2"/><circle cx="32" cy="47" r="2"/><circle cx="41" cy="33" r="2"/><circle cx="75" cy="27" r="2"/><circle cx="34.5" cy="55.5" r="1.5"/><circle cx="22.5" cy="36.5" r="1.5"/><circle cx="57.5" cy="30.5" r="2.5"/><circle cx="39.5" cy="26.5" r="1.5"/><circle cx="39.5" cy="68.5" r="1.5"/><circle cx="39.5" cy="62.5" r="2.5"/><circle cx="57.5" cy="66.5" r="2.5"/><circle cx="80.5" cy="16.5" r="1.5"/><circle cx="59.5" cy="72.5" r="1.5"/><circle cx="78.5" cy="40.5" r="1.5"/><circle cx="25.5" cy="69.5" r="2.5"/><circle cx="82.5" cy="60.5" r="1.5"/><circle cx="50.5" cy="73.5" r="1.5"/><circle cx="19.5" cy="61.5" r="1.5"/><circle cx="64.5" cy="29.5" r="1.5"/><circle cx="68.5" cy="59.5" r="1.5"/><circle cx="57" cy="81" r="2"/><circle cx="75.5" cy="61.5" r="2.5"/><circle cx="32" cy="65" r="3"/><circle cx="71" cy="41" r="4"/><circle cx="69" cy="21" r="4"/><circle cx="25.5" cy="81.5" r="2.5"/><text x="0" y="115" fill="#000000" font-size="5px" font-weight="bold" font-family="'Helvetica Neue', Helvetica, Arial-Unicode, Arial, Sans-serif">Created by Sanzhar Axani</text><text x="0" y="120" fill="#000000" font-size="5px" font-weight="bold" font-family="'Helvetica Neue', Helvetica, Arial-Unicode, Arial, Sans-serif">from the Noun Project</text></svg>